<?xml version="1.0" encoding="UTF-8"?>
<svg id="Layer_1" data-name="Layer 1" xmlns="http://www.w3.org/2000/svg" viewBox="0 0 944.57 466.92">
  <defs>
    <style>
      .cls-1 {
        stroke-width: 0px;
      }

      .cls-1, .cls-2 {
        fill: #000;
      }

      .cls-2 {
        stroke: #000;
        stroke-miterlimit: 10;
        stroke-width: 8.72px;
      }
    </style>
  </defs>
  <g>
    <path class="cls-2" d="M261.78,259.23c-3.7.56-6.06.81-8.37,1.3-3.92.83-7.13-.42-9.82-3.16-4.66-4.74-4.04-9.29,1.97-12.17,9.73-4.66,19.59-9.07,29.44-13.48,3.77-1.69,6.92-3.83,9.4-7.33,10.33-14.57,18.21-30.51,26.32-46.33,4.41-8.59,8.57-17.31,12.62-26.08,1.15-2.49,1.48-5.36,2.36-8.76-2.17.1-3.36-.17-4.22.25-20.46,9.91-31.8,23.64-41.78,20.56-4.36-1.35-7.47-6.88-6.92-10.93.76-5.6,8.43-7.55,28.01-15.17,23.2-9.03,23.59-8.92,43.73-17.63,6.37-2.76,13.21-4.46,19.88-6.5,16.83-5.14,33.91-9.08,51.5-10.51,10.91-.88,21.04,1.44,30.14,7.53,5.87,3.93,8.53,12.05,5.4,18.57-2.49,5.18-5.72,10.37-9.8,14.35-9.65,9.41-19.86,18.19-31.62,25.09-8.72,5.12-16.81,11.29-25.35,16.73-9.29,5.91-18.67,11.69-28.2,17.22-13.62,7.91-27.42,15.52-41.1,23.34-1.48.84-2.67,2.19-4.26,3.53,2.11,2.61,4.34,2.75,6.91,2.34,12.99-2.08,26.02-1.96,39.04-.37,9.65,1.18,17.43,5.55,22.99,13.63,4.54,6.59,3.79,13.09-.35,19.55-5.28,8.24-11.92,15.32-19.62,21.21-12.32,9.43-24.76,18.76-37.61,27.45-14.12,9.55-28.59,18.62-43.25,27.34-9.85,5.86-20.28,10.73-30.44,16.06-11.75,6.17-23.43,12.49-35.25,18.51-16.28,8.29-33.25,14.92-50.65,20.42-5.89,1.86-10.95-.96-12.24-6.24-1.12-4.59.03-6.64,4.56-8.12,8.77-2.87,17.58-5.6,26.29-8.65,3.8-1.33,7.44-3.18,11.01-5.06,5.48-2.88,8.06-8.37,11.18-13.27,12.21-19.19,24.34-38.44,36.44-57.69,6.47-10.3,12.89-20.64,19.22-31.02.96-1.57,1.32-3.5,2.41-6.5ZM222.85,351.89c.44.43.88.86,1.33,1.29,5.19-2.52,10.51-4.82,15.56-7.61,13.58-7.49,27.15-15.01,40.52-22.86,13.36-7.84,26.86-15.56,39.61-24.33,11.63-8.01,22.67-16.99,33.3-26.32,4.96-4.35,8.85-10.21,12.25-15.96,3.87-6.53,1.83-10.06-5.85-10.98-6.88-.82-13.87-1.53-20.77-1.32-16.88.54-33.58,2.48-49.93,7.17-3.63,1.04-5.84,2.7-7.69,5.77-4.87,8.09-10,16.03-14.98,24.06-13.76,22.17-27.5,44.35-41.21,66.54-.87,1.41-1.43,3.02-2.14,4.54ZM309.53,211.57c3.61-1.07,5.83-1.36,7.69-2.35,6.54-3.49,13.08-7.02,19.4-10.91,18.38-11.31,36.85-22.5,54.9-34.33,9.94-6.52,19.1-14.23,28.61-21.42,2.14-1.62,4.51-3.03,6.31-4.97,3.77-4.08,7.64-8.17,10.65-12.79,1.98-3.03.82-5.07-2.78-6.04-3.86-1.04-7.88-1.75-11.87-1.95-16.19-.83-31.81,2.78-47.21,7.06-9.94,2.76-19.56,6.7-29.3,10.19-3.71,1.33-5.74,3.74-5.88,8.05-.12,3.53-1.02,7.13-2.17,10.5-5.03,14.72-11.63,28.74-19.4,42.22-2.88,5-5.45,10.18-8.95,16.75Z"/>
    <path class="cls-2" d="M534.63,231.9c7.77,1.24,14.42-.07,20.92-1.38,13.9-2.81,27.7-6.11,41.54-9.23,5.61-1.27,10.17-3.33,13.26-9.11,9.12-17.06,19.09-33.66,28.47-50.59,2.04-3.68,3.1-7.93,4.43-11.97.9-2.73,1.93-5.06,5.3-5.23,4.59-.24,8.55,1.38,9.3,5.01.79,3.82.87,8.01.22,11.85-.55,3.22-2.32,6.35-4.05,9.23-6.57,10.96-13.4,21.77-20,32.71-1.34,2.23-2.12,4.8-3.77,8.65,5.72-1.02,10.04-1.71,14.32-2.58,7.25-1.48,14.45-3.26,21.73-4.58,8.17-1.49,16.41-2.59,24.62-3.89,7.17-1.13,11.63,1.51,13.48,8.05,1.11,3.93.05,6.08-3.95,6.94-3.06.66-6.25.71-9.37,1.14-8.46,1.15-17,1.97-25.36,3.63-14.77,2.93-29.46,6.3-44.12,9.73-2.01.47-4.32,1.98-5.4,3.69-14.33,22.62-31.39,43.53-42.7,68.02-1.3,2.81-2.23,5.96-2.5,9.02-.35,3.97,1.69,5.41,5.47,3.98,10.3-3.9,20.43-8.23,30.76-12.05,14.43-5.34,29.01-9.85,44.81-7.39,3.51.55,6.04,2.06,7.65,4.78.64,1.07.2,3.88-.73,4.57-2.1,1.55-4.85,3.27-7.26,3.16-11.29-.5-21.73,2.71-31.96,6.68-11.52,4.47-22.9,9.32-34.2,14.32-7.33,3.24-14.52,2.92-21.65.04-1.87-.76-3.56-2.71-4.65-4.52-5.68-9.4-6.04-19.38-1.32-29.09,4.13-8.49,8.98-16.66,13.98-24.67,5.36-8.59,11.3-16.82,16.91-25.27,1.2-1.8,2.03-3.84,3.53-6.75-2.44,0-3.89-.26-5.21.04-9.65,2.19-19.18,5.16-28.94,6.56-9.46,1.35-18.82,4.44-28.71,2.19-8.68-1.97-14.56-9.16-13.59-17.93.14-1.3.53-2.67,1.16-3.81,2.13-3.93,4.36-7.8,6.66-11.63,2.13-3.55,5.04-4.22,8.58-2.13,7.09,4.18,8.2,8.88,3.9,16.33-.43.74-.71,1.57-1.56,3.49Z"/>
    <path class="cls-2" d="M395.97,313.09c.3,13.94,8.67,21.86,22.59,21.64,13.02-.21,25.27-2.92,36.88-8.81,13.46-6.82,27.5-12.66,40.34-20.48,7.75-4.72,15.34-9.82,23.36-14.13,3.31-1.78,7.05-3.08,10.74-3.7,2.14-.36,5.12.41,6.77,1.8,5.44,4.58,4.75,9.45-1.65,12.7-9.22,4.68-18.61,9.01-27.86,13.63-8.45,4.21-16.75,8.73-25.22,12.89-9.88,4.84-19.73,9.82-29.88,14.03-11.75,4.87-24.05,7.75-36.91,5.94-9.55-1.34-18.44-4.58-24.79-12.29-10.01-12.16-11.71-25.83-6.88-40.64,5.17-15.85,14.09-29.56,23.78-42.9,8.94-12.31,19.56-22.84,32.22-31.28,5.97-3.97,12.77-5.67,19.74-6.36,4.72-.47,8.17,2.86,10.6,6.26,2.56,3.58,4.66,7.8,5.75,12.05,1.49,5.85,2.42,11.99,2.5,18.01.09,6.79,1.47,12.89,5.33,18.46,1.93,2.79,2.59,5.75.3,8.73-2.36,3.07-6.32,4.9-9.45,2.96-9.03-5.62-18.42-3.29-27.58-1.67-9.03,1.6-17.83,4.51-26.73,6.83-3.68.96-7.32,2.09-11.05,2.79-4.4.82-7.43,2.75-8.53,7.4-1.28,5.42-2.9,10.76-4.37,16.14ZM413.54,270.81c.41.43.81.86,1.22,1.29,8.05-1.64,16.09-3.38,24.17-4.89,8.22-1.54,16.48-2.85,24.82-4.28,0-8.19.02-15.59-.02-22.99,0-1.34-.14-2.71-.39-4.03-1.21-6.41-3.4-7.57-9.36-4.65-11.69,5.71-21.61,13.57-29.28,24.21-2.6,3.61-5.83,6.75-8.56,10.27-1.14,1.47-1.75,3.36-2.6,5.06Z"/>
    <path class="cls-2" d="M773.81,268.37c.78-1.06,1.62-1.7,1.75-2.46,1.23-6.86,2.72-13.71,3.36-20.63.27-2.94-.38-4.44-1.06-5.7-2.76-5.08-9.91-5.97-13.69-6.44-7.87-.98-14.25,1.18-15.84,1.76-4.25,1.53-5.59,3.01-12.17,5.16,0,0-3.03.99-7.58,1.65-5.85.84-6.89.02-7.25-.33-1.57-1.51-1.26-4.58-.33-6.59,1.39-2.99,4.47-4.26,6.1-4.89,13.42-5.28,20.27-7.25,24.82-8.56,7.21-2.09,14.24-1.59,21.34-.01,8.93,1.99,18.07,11.91,20,20.81,1.97,9.09.97,17.92-1.48,26.63-1.7,6.05-4.24,11.86-6.04,17.89-1.02,3.41-1.57,7.02-1.84,10.57-.29,3.67-1.52,6.42-4.78,8.34-2.51,1.48-4.67,3.54-7.18,5.01-6.39,3.74-12.82,6.97-20.5,7.99-11.56,1.55-22.92,4.56-34.45,6.47-7.28,1.21-14.26.95-20.91-1.02-5.43-1.61-9.89-2.57-13.1-6.48-5.41-6.58-3.4-15.96-2.5-20.16.71-3.33,2.61-9.69,7.91-15.49,2.58-2.83,5.92-5.46,19.44-10.87,5.01-2,9.96-3.81,32.95-10.54,13.75-4.03,17.86-5.11,22.72-3.03,5.5,2.36,8.62,7.33,10.32,10.9ZM704.96,310.73c6.06-.68,12.18-.86,18.06-2.13,13.16-2.83,26.19-6.29,39.31-9.3,3.36-.77,4.2-2.73,4.36-5.75.39-7.45-1.82-13.92-5.8-20.28-3.25-5.19-7.04-7.84-13.11-7.43-11.93.81-22.81,5.38-33.02,10.83-6.78,3.62-12.41,9.6-18.05,15.05-2.64,2.55-4.5,6.16-5.97,9.61-1.55,3.65-.78,5.39,3.08,6.88,3.49,1.34,7.34,1.71,11.14,2.54Z"/>
  </g>
  <g>
    <path class="cls-1" d="M271.38,159.6c.42,11.88.85,23.76,1.27,35.65l6.41-8.41c-25.01,9.06-50.03,18.12-75.04,27.19-4.43,1.6-7.41,5.93-6.09,10.73,1.17,4.27,6.28,7.71,10.73,6.09,25.01-9.06,50.03-18.12,75.04-27.19,3.54-1.28,6.55-4.39,6.41-8.41-.42-11.88-.85-23.76-1.27-35.65-.4-11.2-17.85-11.25-17.45,0h0Z"/>
    <path class="cls-1" d="M284.57,151.95c-7.12-6.37-14.23-12.75-21.35-19.12-2.23-2-5.49-3.3-8.49-2.24-24.38,8.54-48.76,17.08-73.14,25.62-10.53,3.69-6,20.55,4.64,16.83,24.38-8.54,48.76-17.08,73.14-25.62l-8.49-2.24c7.12,6.37,14.23,12.75,21.35,19.12,8.34,7.47,20.73-4.83,12.34-12.34h0Z"/>
    <path class="cls-1" d="M211.91,221.66c-6.53-19.79-13.06-39.57-19.58-59.36-3.5-10.61-20.36-6.07-16.83,4.64,6.53,19.79,13.06,39.57,19.58,59.36,3.5,10.61,20.36,6.07,16.83-4.64h0Z"/>
  </g>
</svg>